<svg data-v-423bf9ae="" xmlns="http://www.w3.org/2000/svg" viewBox="0 0 368.09250922803955 163" class="iconAbove"><!----><!----><!----><g data-v-423bf9ae="" id="41e92305-8621-44b6-8b16-cdf53bef07ea" fill="white" transform="matrix(3.853564622736968,0,0,3.853564622736968,-2.1579913491066804,93.67437141162426)"><path d="M8.69 14.04L8.69 14.04Q7.91 14.04 7.52 13.66L7.52 13.66L7.52 13.66Q7.13 13.29 6.99 12.38L6.99 12.38L6.72 10.50L6.72 10.50Q6.58 9.55 6.07 9.01L6.07 9.01L6.07 9.01Q5.56 8.47 4.48 8.47L4.48 8.47L3.39 8.47L3.39 13.40L4.68 13.61L4.68 13.90L0.56 13.90L0.56 13.61L1.85 13.40L1.85 3.21L0.56 3.01L0.56 2.70L4.48 2.70L4.48 2.70Q6.76 2.70 7.78 3.42L7.78 3.42L7.78 3.42Q8.81 4.13 8.81 5.59L8.81 5.59L8.81 5.59Q8.81 7.99 5.89 8.37L5.89 8.37L5.89 8.46L5.89 8.46Q6.97 8.61 7.62 9.23L7.62 9.23L7.62 9.23Q8.27 9.84 8.44 10.86L8.44 10.86L8.62 12.07L8.62 12.07Q8.74 12.85 8.88 13.13L8.88 13.13L8.88 13.13Q9.03 13.41 9.34 13.41L9.34 13.41L9.34 13.41Q9.55 13.41 9.79 13.28L9.79 13.28L9.79 13.28Q10.02 13.15 10.23 12.94L10.23 12.94L10.47 13.19L10.47 13.19Q10.07 13.65 9.63 13.85L9.63 13.85L9.63 13.85Q9.20 14.04 8.69 14.04L8.69 14.04ZM3.39 8.13L4.96 8.13L4.96 8.13Q5.98 8.13 6.54 7.51L6.54 7.51L6.54 7.51Q7.11 6.89 7.11 5.67L7.11 5.67L7.11 5.38L7.11 5.38Q7.11 3.05 4.48 3.05L4.48 3.05L3.39 3.05L3.39 8.13ZM14.41 14.04L14.41 14.04Q13.40 14.04 12.57 13.57L12.57 13.57L12.57 13.57Q11.75 13.10 11.26 12.24L11.26 12.24L11.26 12.24Q10.78 11.38 10.78 10.28L10.78 10.28L10.78 10.28Q10.78 9.17 11.26 8.32L11.26 8.32L11.26 8.32Q11.75 7.46 12.57 6.99L12.57 6.99L12.57 6.99Q13.40 6.52 14.41 6.52L14.41 6.52L14.41 6.52Q15.41 6.52 16.24 6.99L16.24 6.99L16.24 6.99Q17.07 7.46 17.55 8.32L17.55 8.32L17.55 8.32Q18.03 9.17 18.03 10.28L18.03 10.28L18.03 10.28Q18.03 11.38 17.55 12.24L17.55 12.24L17.55 12.24Q17.07 13.10 16.24 13.57L16.24 13.57L16.24 13.57Q15.41 14.04 14.41 14.04L14.41 14.04ZM14.41 13.73L14.41 13.73Q15.44 13.73 15.97 12.98L15.97 12.98L15.97 12.98Q16.49 12.22 16.49 10.98L16.49 10.98L16.49 9.58L16.49 9.58Q16.49 8.33 15.97 7.58L15.97 7.58L15.97 7.58Q15.44 6.83 14.41 6.83L14.41 6.83L14.41 6.83Q13.37 6.83 12.85 7.58L12.85 7.58L12.85 7.58Q12.32 8.33 12.32 9.58L12.32 9.58L12.32 10.98L12.32 10.98Q12.32 12.22 12.85 12.98L12.85 12.98L12.85 12.98Q13.37 13.73 14.41 13.73L14.41 13.73ZM19.01 13.90L19.01 13.62L19.99 13.48L19.99 7.07L19.01 6.93L19.01 6.65L21.39 6.65L21.39 7.94L21.39 7.94Q21.90 7.28 22.53 6.90L22.53 6.90L22.53 6.90Q23.17 6.52 23.91 6.52L23.91 6.52L23.91 6.52Q24.77 6.52 25.30 6.90L25.30 6.90L25.30 6.90Q25.84 7.27 25.98 8.01L25.98 8.01L25.98 8.01Q26.49 7.32 27.13 6.92L27.13 6.92L27.13 6.92Q27.78 6.52 28.55 6.52L28.55 6.52L28.55 6.52Q29.54 6.52 30.09 7.02L30.09 7.02L30.09 7.02Q30.65 7.52 30.65 8.53L30.65 8.53L30.65 13.48L31.63 13.62L31.63 13.90L28.41 13.90L28.41 13.62L29.25 13.48L29.25 8.55L29.25 8.55Q29.25 7.81 28.98 7.42L28.98 7.42L28.98 7.42Q28.71 7.03 28.11 7.03L28.11 7.03L28.11 7.03Q27.54 7.03 27.00 7.42L27.00 7.42L27.00 7.42Q26.46 7.81 26.03 8.43L26.03 8.43L26.03 13.48L26.87 13.62L26.87 13.90L23.77 13.90L23.77 13.62L24.61 13.48L24.61 8.55L24.61 8.55Q24.61 7.81 24.35 7.42L24.35 7.42L24.35 7.42Q24.08 7.03 23.48 7.03L23.48 7.03L23.48 7.03Q22.90 7.03 22.37 7.42L22.37 7.42L22.37 7.42Q21.83 7.81 21.39 8.43L21.39 8.43L21.39 13.48L22.23 13.62L22.23 13.90L19.01 13.90ZM33.53 17.99L33.53 17.99Q32.80 17.99 32.35 17.63L32.35 17.63L32.35 17.63Q31.91 17.26 31.91 16.65L31.91 16.65L31.91 16.65Q31.91 16.23 32.15 15.97L32.15 15.97L32.15 15.97Q32.40 15.71 32.76 15.71L32.76 15.71L32.76 15.71Q33.03 15.71 33.24 15.82L33.24 15.82L33.24 15.82Q33.45 15.93 33.57 16.16L33.57 16.16L33.57 16.16Q33.36 16.45 33.36 16.77L33.36 16.77L33.36 16.77Q33.36 17.05 33.54 17.23L33.54 17.23L33.54 17.23Q33.73 17.42 34.01 17.42L34.01 17.42L34.01 17.42Q34.34 17.42 34.59 17.19L34.59 17.19L34.59 17.19Q34.83 16.97 35.03 16.41L35.03 16.41L35.87 14.00L32.62 7.08L31.68 6.94L31.68 6.66L35.17 6.66L35.17 6.94L34.19 7.11L36.53 12.11L38.19 7.29L36.99 6.94L36.99 6.66L39.51 6.66L39.51 6.94L38.56 7.29L35.42 16.41L35.42 16.41Q35.13 17.23 34.71 17.61L34.71 17.61L34.71 17.61Q34.30 17.99 33.53 17.99L33.53 17.99ZM47.71 14.18L47.71 14.18Q46.41 14.18 45.15 13.44L45.15 13.44L43.96 14.04L43.65 14.04L43.65 10.44L43.96 10.44L45.16 13.05L45.16 13.05Q46.33 13.87 47.82 13.87L47.82 13.87L47.82 13.87Q49.06 13.87 49.86 13.22L49.86 13.22L49.86 13.22Q50.67 12.57 50.67 11.40L50.67 11.40L50.67 11.40Q50.67 10.54 50.15 10.05L50.15 10.05L50.15 10.05Q49.63 9.55 48.47 9.25L48.47 9.25L46.14 8.65L46.14 8.65Q44.93 8.33 44.31 7.55L44.31 7.55L44.31 7.55Q43.69 6.78 43.69 5.71L43.69 5.71L43.69 5.71Q43.69 4.75 44.08 4.00L44.08 4.00L44.08 4.00Q44.46 3.25 45.21 2.84L45.21 2.84L45.21 2.84Q45.95 2.42 46.97 2.42L46.97 2.42L46.97 2.42Q48.24 2.42 49.25 2.86L49.25 2.86L50.27 2.42L50.58 2.42L50.58 5.28L50.27 5.28L49.27 3.23L49.27 3.23Q48.22 2.73 46.98 2.73L46.98 2.73L46.98 2.73Q45.77 2.73 45.07 3.35L45.07 3.35L45.07 3.35Q44.37 3.98 44.37 5.00L44.37 5.00L44.37 5.00Q44.37 5.75 44.86 6.19L44.86 6.19L44.86 6.19Q45.36 6.62 46.33 6.87L46.33 6.87L48.83 7.53L48.83 7.53Q50.05 7.84 50.64 8.59L50.64 8.59L50.64 8.59Q51.24 9.34 51.24 10.86L51.24 10.86L51.24 10.86Q51.24 12.42 50.28 13.30L50.28 13.30L50.28 13.30Q49.32 14.18 47.71 14.18L47.71 14.18ZM55.31 14.04L55.31 14.04Q54.39 14.04 53.84 13.58L53.84 13.58L53.84 13.58Q53.28 13.12 53.28 12.11L53.28 12.11L53.28 7.07L52.29 6.93L52.29 6.65L53.28 6.65L53.28 5.49L54.68 5.14L54.68 6.65L56.50 6.65L56.50 6.93L54.68 7.07L54.68 12.08L54.68 12.08Q54.68 13.57 55.75 13.57L55.75 13.57L55.75 13.57Q55.97 13.57 56.17 13.50L56.17 13.50L56.17 13.50Q56.38 13.43 56.50 13.36L56.50 13.36L56.50 13.36Q56.62 13.29 56.64 13.26L56.64 13.26L56.83 13.48L56.83 13.48Q56.20 14.04 55.31 14.04L55.31 14.04ZM58.77 5.03L58.77 5.03Q58.38 5.03 58.10 4.75L58.10 4.75L58.10 4.75Q57.82 4.48 57.82 4.09L57.82 4.09L57.82 4.09Q57.82 3.70 58.09 3.43L58.09 3.43L58.09 3.43Q58.37 3.16 58.77 3.16L58.77 3.16L58.77 3.16Q59.15 3.16 59.42 3.43L59.42 3.43L59.42 3.43Q59.68 3.70 59.68 4.09L59.68 4.09L59.68 4.09Q59.68 4.48 59.42 4.75L59.42 4.75L59.42 4.75Q59.15 5.03 58.77 5.03L58.77 5.03ZM60.65 13.90L57.29 13.90L57.29 13.62L58.27 13.48L58.27 7.08L57.29 6.94L57.29 6.66L59.67 6.66L59.67 13.48L60.65 13.62L60.65 13.90ZM64.22 14.04L64.22 14.04Q63.29 14.04 62.74 13.58L62.74 13.58L62.74 13.58Q62.19 13.12 62.19 12.11L62.19 12.11L62.19 7.07L61.19 6.93L61.19 6.65L62.19 6.65L62.19 5.49L63.59 5.14L63.59 6.65L65.41 6.65L65.41 6.93L63.59 7.07L63.59 12.08L63.59 12.08Q63.59 13.57 64.65 13.57L64.65 13.57L64.65 13.57Q64.88 13.57 65.08 13.50L65.08 13.50L65.08 13.50Q65.28 13.43 65.40 13.36L65.40 13.36L65.40 13.36Q65.52 13.29 65.55 13.26L65.55 13.26L65.73 13.48L65.73 13.48Q65.10 14.04 64.22 14.04L64.22 14.04ZM70.03 14.04L70.03 14.04Q69.02 14.04 68.19 13.57L68.19 13.57L68.19 13.57Q67.37 13.10 66.88 12.24L66.88 12.24L66.88 12.24Q66.40 11.38 66.40 10.28L66.40 10.28L66.40 10.28Q66.40 9.11 66.91 8.26L66.91 8.26L66.91 8.26Q67.42 7.41 68.25 6.97L68.25 6.97L68.25 6.97Q69.08 6.52 70.03 6.52L70.03 6.52L70.03 6.52Q70.83 6.52 71.48 6.80L71.48 6.80L71.48 6.80Q72.14 7.07 72.53 7.56L72.53 7.56L72.53 7.56Q72.91 8.05 72.91 8.67L72.91 8.67L72.91 8.67Q72.91 9.13 72.67 9.37L72.67 9.37L72.67 9.37Q72.44 9.62 72.04 9.62L72.04 9.62L72.04 9.62Q71.67 9.62 71.41 9.37L71.41 9.37L71.41 9.37Q71.16 9.11 71.16 8.74L71.16 8.74L71.16 8.74Q71.37 8.60 71.46 8.43L71.46 8.43L71.46 8.43Q71.54 8.26 71.54 8.01L71.54 8.01L71.54 8.01Q71.54 7.49 71.13 7.16L71.13 7.16L71.13 7.16Q70.71 6.83 70.03 6.83L70.03 6.83L70.03 6.83Q69.02 6.83 68.48 7.55L68.48 7.55L68.48 7.55Q67.94 8.27 67.94 9.58L67.94 9.58L67.94 10.98L67.94 10.98Q67.94 12.22 68.47 12.98L68.47 12.98L68.47 12.98Q68.99 13.73 70.03 13.73L70.03 13.73L70.03 13.73Q70.98 13.73 71.69 13.20L71.69 13.20L71.69 13.20Q72.39 12.66 72.56 11.77L72.56 11.77L72.88 11.77L72.88 11.77Q72.69 12.81 71.91 13.43L71.91 13.43L71.91 13.43Q71.13 14.04 70.03 14.04L70.03 14.04ZM73.75 13.90L73.75 13.62L74.73 13.48L74.73 3.12L73.75 2.98L73.75 2.70L76.13 2.70L76.13 8.16L76.13 8.16Q76.65 7.41 77.35 6.97L77.35 6.97L77.35 6.97Q78.05 6.52 78.86 6.52L78.86 6.52L78.86 6.52Q79.87 6.52 80.45 7.03L80.45 7.03L80.45 7.03Q81.03 7.53 81.03 8.53L81.03 8.53L81.03 13.48L82.01 13.62L82.01 13.90L78.79 13.90L78.79 13.62L79.63 13.48L79.63 8.55L79.63 8.55Q79.63 7.83 79.34 7.43L79.34 7.43L79.34 7.43Q79.04 7.03 78.43 7.03L78.43 7.03L78.43 7.03Q77.78 7.03 77.19 7.50L77.19 7.50L77.19 7.50Q76.59 7.97 76.13 8.65L76.13 8.65L76.13 13.48L76.97 13.62L76.97 13.90L73.75 13.90ZM86.56 14.04L86.56 14.04Q85.53 14.04 84.69 13.57L84.69 13.57L84.69 13.57Q83.85 13.10 83.36 12.25L83.36 12.25L83.36 12.25Q82.87 11.40 82.87 10.28L82.87 10.28L82.87 10.28Q82.87 9.16 83.35 8.31L83.35 8.31L83.35 8.31Q83.83 7.46 84.65 6.99L84.65 6.99L84.65 6.99Q85.47 6.52 86.48 6.52L86.48 6.52L86.48 6.52Q87.36 6.52 88.06 6.92L88.06 6.92L88.06 6.92Q88.76 7.31 89.15 8.00L89.15 8.00L89.15 8.00Q89.54 8.69 89.56 9.59L89.56 9.59L84.41 9.59L84.41 10.98L84.41 10.98Q84.41 12.21 84.96 12.97L84.96 12.97L84.96 12.97Q85.51 13.73 86.56 13.73L86.56 13.73L86.56 13.73Q87.53 13.73 88.27 13.19L88.27 13.19L88.27 13.19Q89.01 12.64 89.18 11.77L89.18 11.77L89.50 11.77L89.50 11.77Q89.31 12.81 88.51 13.43L88.51 13.43L88.51 13.43Q87.71 14.04 86.56 14.04L86.56 14.04ZM84.42 9.24L88.02 9.24L88.02 9.24Q88.02 8.02 87.64 7.43L87.64 7.43L87.64 7.43Q87.26 6.83 86.46 6.83L86.46 6.83L86.46 6.83Q85.53 6.83 85.01 7.49L85.01 7.49L85.01 7.49Q84.49 8.15 84.42 9.24L84.42 9.24ZM93.48 14.04L93.48 14.04Q92.33 14.04 91.56 13.55L91.56 13.55L91.56 13.55Q90.79 13.06 90.79 12.28L90.79 12.28L90.79 12.28Q90.79 11.87 91.01 11.64L91.01 11.64L91.01 11.64Q91.22 11.41 91.59 11.41L91.59 11.41L91.59 11.41Q91.87 11.41 92.06 11.55L92.06 11.55L92.06 11.55Q92.26 11.69 92.34 11.94L92.34 11.94L92.34 11.94Q92.04 12.28 92.04 12.66L92.04 12.66L92.04 12.66Q92.04 13.09 92.43 13.41L92.43 13.41L92.43 13.41Q92.82 13.73 93.48 13.73L93.48 13.73L93.48 13.73Q94.36 13.73 94.92 13.34L94.92 13.34L94.92 13.34Q95.48 12.94 95.48 12.26L95.48 12.26L95.48 12.26Q95.48 11.87 95.24 11.68L95.24 11.68L95.24 11.68Q95.00 11.48 94.32 11.23L94.32 11.23L92.20 10.46L92.20 10.46Q90.96 10.01 90.96 8.79L90.96 8.79L90.96 8.79Q90.96 7.80 91.64 7.16L91.64 7.16L91.64 7.16Q92.33 6.52 93.53 6.52L93.53 6.52L93.53 6.52Q94.53 6.52 95.23 6.98L95.23 6.98L95.23 6.98Q95.94 7.43 95.94 8.27L95.94 8.27L95.94 8.27Q95.94 8.61 95.76 8.81L95.76 8.81L95.76 8.81Q95.58 9.02 95.28 9.02L95.28 9.02L95.28 9.02Q94.99 9.02 94.80 8.86L94.80 8.86L94.80 8.86Q94.61 8.69 94.61 8.41L94.61 8.41L94.61 8.41Q94.79 8.27 94.86 8.11L94.86 8.11L94.86 8.11Q94.93 7.95 94.93 7.73L94.93 7.73L94.93 7.73Q94.93 7.34 94.59 7.08L94.59 7.08L94.59 7.08Q94.25 6.83 93.53 6.83L93.53 6.83L93.53 6.83Q92.92 6.83 92.48 7.02L92.48 7.02L92.48 7.02Q92.04 7.21 91.81 7.52L91.81 7.52L91.81 7.52Q91.59 7.83 91.59 8.15L91.59 8.15L91.59 8.15Q91.59 8.48 91.83 8.68L91.83 8.68L91.83 8.68Q92.08 8.88 92.74 9.11L92.74 9.11L94.70 9.81L94.70 9.81Q95.38 10.07 95.73 10.51L95.73 10.51L95.73 10.51Q96.08 10.96 96.08 11.68L96.08 11.68L96.08 11.68Q96.08 12.70 95.44 13.37L95.44 13.37L95.44 13.37Q94.79 14.04 93.48 14.04L93.48 14.04Z"></path></g><!----><g data-v-423bf9ae="" id="65561feb-e210-4089-a30f-4cde79bd0b4b" transform="matrix(1.8789143451566646,0,0,1.8789143451566646,135.16875498418062,-3.8457200410091943)" stroke="none" fill="white"><style></style><path d="M40.7 41.5c-.4-3.8-1.1-5.7-1.7-7.6-.5-1.3-.9-2.6-1.2-4.4-.8-4.3 2.9-14 2.9-14.1.1-.3.1-.7-.1-1-.2-.3-.5-.4-.9-.4-4.4.5-6.1-3.7-6.4-4.5V3.1c0-.6-.4-1-1-1s-1 .4-1 1v6.4c-.1.2-.2.4-.5.8-.9 1.1-2.2 1.8-3.7 2.1v37.5h12.7c.3 0 .7-.2.8-.5.2-.4.7-2 .1-7.9zM32 41h-2c-.6 0-1-.4-1-1s.4-1 1-1h2c.6 0 1 .4 1 1s-.4 1-1 1zm0-10h-2c-.6 0-1-.4-1-1s.4-1 1-1h2c.6 0 1 .4 1 1s-.4 1-1 1zm0-10h-2c-.6 0-1-.4-1-1s.4-1 1-1h2c.6 0 1 .4 1 1s-.4 1-1 1zM20.8 9.8V3.1c0-.6-.4-1-1-1s-1 .4-1 1v6.5c-.3.8-2 5-6.4 4.5-.4 0-.7.1-.9.4-.2.3-.3.6-.1 1 1.1 2.7 3.6 10.5 2.9 14.1-.4 1.8-.8 3.1-1.2 4.4-.6 1.9-1.3 3.9-1.7 7.6-.6 5.9-.1 7.5.2 7.9.2.3.5.5.8.5H25V12.4c-.4-.1-.9-.1-1.3-.3-.9-.3-3-1.1-2.9-2.3z"></path></g><!----></svg>